<svg xmlns="http://www.w3.org/2000/svg" xmlns:xlink="http://www.w3.org/1999/xlink" width="1536" zoomAndPan="magnify" viewBox="0 0 1152 287.999989" height="384" preserveAspectRatio="xMidYMid meet" version="1.0"><defs><g/><clipPath id="dc4df4ef53"><path d="M 10.820312 67.675781 L 167.570312 67.675781 L 167.570312 220.675781 L 10.820312 220.675781 Z M 10.820312 67.675781 " clip-rule="nonzero"/></clipPath></defs><g clip-path="url(#dc4df4ef53)"><path fill="#ffffff" d="M 167.105469 149.933594 C 168.417969 147.78125 167.570312 145.011719 166.699219 142.648438 C 166.007812 140.78125 165.308594 138.914062 164.625 137.054688 C 164.320312 136.222656 164.007812 135.398438 163.527344 134.652344 C 163.070312 133.960938 162.476562 133.375 162.113281 132.621094 C 161.707031 131.757812 161.660156 130.769531 161.628906 129.820312 C 161.394531 123.390625 161.359375 116.957031 161.503906 110.519531 C 161.511719 110.214844 161.496094 109.867188 161.257812 109.671875 C 161.078125 109.523438 160.820312 109.523438 160.585938 109.523438 C 157.050781 109.476562 153.914062 107.421875 150.929688 105.527344 C 150.003906 104.949219 149.046875 104.351562 147.972656 104.117188 C 146.789062 103.863281 145.554688 104.0625 144.363281 104.265625 C 142.304688 104.609375 140.257812 104.964844 138.195312 105.308594 C 137.785156 105.378906 137.347656 105.457031 137.007812 105.695312 C 136.585938 105.984375 136.332031 106.476562 135.957031 106.816406 C 134.710938 107.921875 132.761719 107.035156 131.375 106.117188 C 130.917969 105.820312 130.464844 105.519531 130.023438 105.238281 C 128.628906 104.328125 126.429688 103.582031 125.605469 105.027344 C 125.378906 105.417969 125.285156 105.960938 124.867188 106.117188 C 124.679688 106.1875 124.46875 106.164062 124.261719 106.125 C 122.449219 105.8125 120.699219 105.183594 119.089844 104.273438 C 118.613281 104.007812 118.101562 103.699219 117.554688 103.746094 C 116.902344 103.808594 116.382812 104.367188 115.734375 104.507812 C 114.53125 104.757812 113.605469 103.535156 112.65625 102.75 C 109.289062 100.011719 103.664062 102.53125 100.21875 99.894531 C 99.457031 99.3125 98.859375 98.496094 97.988281 98.097656 C 96.960938 97.617188 95.757812 97.796875 94.628906 97.625 C 93.058594 97.382812 91.386719 96.386719 90.601562 95.011719 L 90.601562 67.726562 L 53.75 67.726562 L 53.75 132.203125 L 10.882812 132.203125 C 10.625 133.152344 11.171875 134.332031 11.925781 134.964844 C 12.523438 135.460938 13.324219 135.679688 13.878906 136.230469 C 14.65625 137 14.757812 138.222656 15.425781 139.101562 C 16.1875 140.097656 17.5 140.429688 18.542969 141.128906 C 19.3125 141.644531 19.90625 142.359375 20.511719 143.066406 C 22.136719 144.964844 23.824219 146.855469 25.917969 148.214844 C 26.855469 148.820312 27.867188 149.3125 28.738281 150.011719 C 30.574219 151.472656 31.65625 153.644531 32.675781 155.757812 C 33.0625 156.546875 33.445312 157.347656 33.640625 158.203125 C 33.878906 159.210938 33.855469 160.246094 34.035156 161.257812 C 34.664062 164.734375 37.558594 167.308594 40.460938 169.324219 C 43.617188 171.507812 46.984375 173.351562 50.34375 175.195312 C 50.9375 175.515625 51.613281 175.855469 52.257812 175.660156 C 52.703125 175.527344 53.035156 175.164062 53.347656 174.820312 C 54.808594 173.195312 56.316406 171.492188 56.855469 169.378906 C 57.273438 167.738281 57.328125 165.613281 58.898438 164.976562 C 59.578125 164.695312 60.363281 164.828125 61.0625 164.59375 C 62.027344 164.261719 62.820312 163.234375 63.832031 163.40625 C 64.375 163.496094 64.78125 163.910156 65.261719 164.183594 C 66.941406 165.125 69.035156 164.097656 70.96875 164.246094 C 73.101562 164.414062 74.820312 166.019531 76.335938 167.527344 C 79.441406 170.605469 82.675781 173.910156 83.71875 178.164062 C 85.289062 184.519531 89.84375 189.816406 94.488281 194.414062 C 95.21875 195.136719 96.003906 195.882812 96.285156 196.871094 C 96.519531 197.710938 96.363281 198.597656 96.371094 199.46875 C 96.386719 203.085938 99.203125 206.046875 100.289062 209.5 C 100.5 210.175781 100.648438 210.863281 100.992188 211.476562 C 101.644531 212.609375 102.894531 213.25 104.070312 213.816406 C 107.421875 215.441406 110.851562 217.089844 114.5625 217.488281 C 115.976562 217.636719 117.484375 217.628906 118.699219 218.367188 C 119.609375 218.925781 120.277344 219.867188 121.296875 220.171875 C 123.054688 220.714844 124.820312 218.933594 125.0625 217.105469 C 125.308594 215.277344 124.546875 213.488281 123.972656 211.734375 C 121.761719 205.074219 122.191406 197.15625 126.65625 191.738281 C 128 190.113281 129.640625 188.765625 131.273438 187.4375 C 133.28125 185.796875 135.28125 184.160156 137.464844 182.777344 C 139.613281 181.410156 141.929688 180.289062 144.0625 178.898438 C 150.296875 174.804688 155.222656 168.164062 162.523438 166.609375 C 163.613281 166.375 165.105469 165.683594 164.6875 164.65625 C 164.515625 164.238281 164.054688 164.003906 163.824219 163.605469 C 163.597656 163.210938 163.949219 162.503906 164.328125 162.742188 C 165.984375 161.894531 165.976562 159.351562 165.652344 157.507812 C 165.339844 155.675781 164.765625 153.683594 165.628906 152.035156 C 166.015625 151.25 166.660156 150.679688 167.097656 149.949219 Z M 167.105469 149.933594 " fill-opacity="1" fill-rule="nonzero"/></g><g fill="#ffffff" fill-opacity="1"><g transform="translate(212.638642, 184.499985)"><g><path d="M 3.75 -67.9375 L 3.75 -82.03125 L 70.6875 -82.03125 L 70.6875 -67.9375 L 45.6875 -67.9375 L 45.6875 0 L 28.84375 0 L 28.84375 -67.9375 Z M 3.75 -67.9375 "/></g></g></g><g fill="#ffffff" fill-opacity="1"><g transform="translate(287.123732, 184.499985)"><g><path d="M 2.3125 0 L 36.171875 -48.171875 L 36.171875 -35.453125 L 4.953125 -82.03125 L 24.390625 -82.03125 L 33.421875 -68.21875 C 34.960938 -65.832031 36.28125 -63.617188 37.375 -61.578125 C 38.476562 -59.535156 39.5 -57.570312 40.4375 -55.6875 C 41.375 -53.800781 42.394531 -51.847656 43.5 -49.828125 L 39.03125 -49.828125 C 40.164062 -51.847656 41.210938 -53.800781 42.171875 -55.6875 C 43.128906 -57.570312 44.164062 -59.535156 45.28125 -61.578125 C 46.394531 -63.617188 47.742188 -65.832031 49.328125 -68.21875 L 58.46875 -82.03125 L 77.453125 -82.03125 L 46.796875 -36.328125 L 46.796875 -48.453125 L 79.890625 0 L 60.0625 0 L 48.609375 -17.234375 C 47.210938 -19.359375 46.035156 -21.21875 45.078125 -22.8125 C 44.128906 -24.414062 43.257812 -25.941406 42.46875 -27.390625 C 41.6875 -28.835938 40.796875 -30.441406 39.796875 -32.203125 L 42.453125 -32.203125 C 41.453125 -30.484375 40.546875 -28.890625 39.734375 -27.421875 C 38.929688 -25.953125 38.050781 -24.414062 37.09375 -22.8125 C 36.144531 -21.21875 34.9375 -19.359375 33.46875 -17.234375 L 21.6875 0 Z M 2.3125 0 "/></g></g></g><g fill="#ffffff" fill-opacity="1"><g transform="translate(369.316074, 184.499985)"><g/></g></g><g fill="#ffffff" fill-opacity="1"><g transform="translate(395.465684, 184.499985)"><g><path d="M 43.046875 1.15625 C 35.742188 1.15625 29.203125 -0.507812 23.421875 -3.84375 C 17.640625 -7.1875 13.085938 -11.992188 9.765625 -18.265625 C 6.453125 -24.546875 4.796875 -32.109375 4.796875 -40.953125 C 4.796875 -49.835938 6.460938 -57.425781 9.796875 -63.71875 C 13.140625 -70.019531 17.707031 -74.835938 23.5 -78.171875 C 29.300781 -81.515625 35.816406 -83.1875 43.046875 -83.1875 C 47.742188 -83.1875 52.117188 -82.523438 56.171875 -81.203125 C 60.234375 -79.878906 63.820312 -77.953125 66.9375 -75.421875 C 70.0625 -72.890625 72.625 -69.804688 74.625 -66.171875 C 76.625 -62.535156 77.9375 -58.40625 78.5625 -53.78125 L 61.546875 -53.78125 C 61.140625 -56.0625 60.40625 -58.097656 59.34375 -59.890625 C 58.28125 -61.691406 56.957031 -63.21875 55.375 -64.46875 C 53.800781 -65.71875 52.003906 -66.660156 49.984375 -67.296875 C 47.960938 -67.941406 45.757812 -68.265625 43.375 -68.265625 C 39.050781 -68.265625 35.265625 -67.179688 32.015625 -65.015625 C 28.765625 -62.847656 26.257812 -59.738281 24.5 -55.6875 C 22.738281 -51.632812 21.859375 -46.722656 21.859375 -40.953125 C 21.859375 -35.117188 22.75 -30.175781 24.53125 -26.125 C 26.3125 -22.070312 28.816406 -19 32.046875 -16.90625 C 35.273438 -14.8125 39.050781 -13.765625 43.375 -13.765625 C 45.726562 -13.765625 47.914062 -14.09375 49.9375 -14.75 C 51.957031 -15.414062 53.765625 -16.363281 55.359375 -17.59375 C 56.953125 -18.820312 58.28125 -20.332031 59.34375 -22.125 C 60.40625 -23.925781 61.160156 -25.96875 61.609375 -28.25 L 78.609375 -28.25 C 78.097656 -24.238281 76.914062 -20.472656 75.0625 -16.953125 C 73.207031 -13.429688 70.75 -10.300781 67.6875 -7.5625 C 64.625 -4.832031 61.023438 -2.695312 56.890625 -1.15625 C 52.765625 0.382812 48.148438 1.15625 43.046875 1.15625 Z M 43.046875 1.15625 "/></g></g></g><g fill="#ffffff" fill-opacity="1"><g transform="translate(478.538843, 184.499985)"><g><path d="M 34.1875 1.21875 C 28.0625 1.21875 22.75 -0.09375 18.25 -2.71875 C 13.75 -5.34375 10.28125 -9.015625 7.84375 -13.734375 C 5.40625 -18.453125 4.1875 -23.929688 4.1875 -30.171875 C 4.1875 -36.484375 5.40625 -41.992188 7.84375 -46.703125 C 10.28125 -51.421875 13.75 -55.09375 18.25 -57.71875 C 22.75 -60.34375 28.0625 -61.65625 34.1875 -61.65625 C 40.28125 -61.65625 45.570312 -60.34375 50.0625 -57.71875 C 54.5625 -55.09375 58.03125 -51.421875 60.46875 -46.703125 C 62.914062 -41.992188 64.140625 -36.484375 64.140625 -30.171875 C 64.140625 -23.929688 62.914062 -18.453125 60.46875 -13.734375 C 58.03125 -9.015625 54.5625 -5.34375 50.0625 -2.71875 C 45.570312 -0.09375 40.28125 1.21875 34.1875 1.21875 Z M 34.1875 -11.78125 C 37.050781 -11.78125 39.460938 -12.566406 41.421875 -14.140625 C 43.390625 -15.722656 44.882812 -17.898438 45.90625 -20.671875 C 46.9375 -23.441406 47.453125 -26.625 47.453125 -30.21875 C 47.453125 -33.851562 46.9375 -37.046875 45.90625 -39.796875 C 44.882812 -42.554688 43.390625 -44.722656 41.421875 -46.296875 C 39.460938 -47.878906 37.050781 -48.671875 34.1875 -48.671875 C 31.320312 -48.671875 28.898438 -47.878906 26.921875 -46.296875 C 24.941406 -44.722656 23.445312 -42.554688 22.4375 -39.796875 C 21.425781 -37.046875 20.921875 -33.851562 20.921875 -30.21875 C 20.921875 -26.625 21.425781 -23.441406 22.4375 -20.671875 C 23.445312 -17.898438 24.929688 -15.722656 26.890625 -14.140625 C 28.859375 -12.566406 31.289062 -11.78125 34.1875 -11.78125 Z M 34.1875 -11.78125 "/></g></g></g><g fill="#ffffff" fill-opacity="1"><g transform="translate(546.858143, 184.499985)"><g><path d="M 27.75 0.875 C 23.53125 0.875 19.84375 -0.0390625 16.6875 -1.875 C 13.53125 -3.707031 11.085938 -6.359375 9.359375 -9.828125 C 7.628906 -13.296875 6.765625 -17.429688 6.765625 -22.234375 L 6.765625 -60.78125 L 23.171875 -60.78125 L 23.171875 -25.15625 C 23.171875 -21.300781 24.148438 -18.3125 26.109375 -16.1875 C 28.078125 -14.0625 30.789062 -13 34.25 -13 C 36.5625 -13 38.601562 -13.492188 40.375 -14.484375 C 42.15625 -15.472656 43.550781 -16.929688 44.5625 -18.859375 C 45.570312 -20.785156 46.078125 -23.125 46.078125 -25.875 L 46.078125 -60.78125 L 62.546875 -60.78125 L 62.546875 0 L 46.84375 0 L 46.625 -15.3125 L 48 -15.3125 C 46.3125 -10.164062 43.804688 -6.179688 40.484375 -3.359375 C 37.171875 -0.535156 32.925781 0.875 27.75 0.875 Z M 27.75 0.875 "/></g></g></g><g fill="#ffffff" fill-opacity="1"><g transform="translate(616.113295, 184.499985)"><g><path d="M 6.765625 0 L 6.765625 -60.78125 L 22.6875 -60.78125 L 22.6875 -50.265625 L 23.234375 -50.265625 C 24.335938 -53.972656 26.171875 -56.769531 28.734375 -58.65625 C 31.304688 -60.550781 34.351562 -61.5 37.875 -61.5 C 38.757812 -61.5 39.675781 -61.460938 40.625 -61.390625 C 41.582031 -61.316406 42.410156 -61.203125 43.109375 -61.046875 L 43.109375 -46.515625 C 42.410156 -46.734375 41.375 -46.90625 40 -47.03125 C 38.625 -47.164062 37.289062 -47.234375 36 -47.234375 C 33.582031 -47.234375 31.390625 -46.703125 29.421875 -45.640625 C 27.460938 -44.578125 25.929688 -43.070312 24.828125 -41.125 C 23.722656 -39.175781 23.171875 -36.882812 23.171875 -34.25 L 23.171875 0 Z M 6.765625 0 "/></g></g></g><g fill="#ffffff" fill-opacity="1"><g transform="translate(661.200724, 184.499985)"><g><path d="M 31.109375 1.265625 C 26.148438 1.265625 21.753906 0.539062 17.921875 -0.90625 C 14.085938 -2.351562 10.96875 -4.453125 8.5625 -7.203125 C 6.15625 -9.960938 4.640625 -13.269531 4.015625 -17.125 L 19.484375 -19.21875 C 20.179688 -16.425781 21.519531 -14.3125 23.5 -12.875 C 25.488281 -11.445312 28.132812 -10.734375 31.4375 -10.734375 C 34.550781 -10.734375 37.007812 -11.328125 38.8125 -12.515625 C 40.613281 -13.710938 41.515625 -15.226562 41.515625 -17.0625 C 41.515625 -18.644531 40.863281 -19.941406 39.5625 -20.953125 C 38.257812 -21.960938 36.300781 -22.738281 33.6875 -23.28125 L 23.171875 -25.375 C 17.304688 -26.59375 12.90625 -28.648438 9.96875 -31.546875 C 7.03125 -34.441406 5.5625 -38.1875 5.5625 -42.78125 C 5.5625 -46.632812 6.613281 -49.972656 8.71875 -52.796875 C 10.832031 -55.617188 13.804688 -57.800781 17.640625 -59.34375 C 21.472656 -60.882812 25.960938 -61.65625 31.109375 -61.65625 C 36.023438 -61.65625 40.28125 -60.957031 43.875 -59.5625 C 47.46875 -58.164062 50.359375 -56.179688 52.546875 -53.609375 C 54.734375 -51.046875 56.117188 -48.019531 56.703125 -44.53125 L 42 -42.5 C 41.488281 -44.664062 40.34375 -46.4375 38.5625 -47.8125 C 36.78125 -49.1875 34.40625 -49.875 31.4375 -49.875 C 28.6875 -49.875 26.421875 -49.296875 24.640625 -48.140625 C 22.859375 -46.984375 21.96875 -45.488281 21.96875 -43.65625 C 21.96875 -42.113281 22.570312 -40.816406 23.78125 -39.765625 C 24.988281 -38.722656 26.972656 -37.925781 29.734375 -37.375 L 40.734375 -35.171875 C 46.679688 -34.003906 51.09375 -32.0625 53.96875 -29.34375 C 56.851562 -26.625 58.296875 -23.082031 58.296875 -18.71875 C 58.296875 -14.71875 57.140625 -11.222656 54.828125 -8.234375 C 52.515625 -5.242188 49.3125 -2.910156 45.21875 -1.234375 C 41.132812 0.429688 36.429688 1.265625 31.109375 1.265625 Z M 31.109375 1.265625 "/></g></g></g><g fill="#ffffff" fill-opacity="1"><g transform="translate(723.354222, 184.499985)"><g><path d="M 34.296875 1.21875 C 28.097656 1.21875 22.75 -0.0664062 18.25 -2.640625 C 13.75 -5.210938 10.28125 -8.847656 7.84375 -13.546875 C 5.40625 -18.242188 4.1875 -23.765625 4.1875 -30.109375 C 4.1875 -36.390625 5.394531 -41.882812 7.8125 -46.59375 C 10.238281 -51.3125 13.65625 -55 18.0625 -57.65625 C 22.46875 -60.320312 27.625 -61.65625 33.53125 -61.65625 C 37.601562 -61.65625 41.378906 -60.992188 44.859375 -59.671875 C 48.347656 -58.359375 51.40625 -56.40625 54.03125 -53.8125 C 56.65625 -51.226562 58.691406 -48 60.140625 -44.125 C 61.597656 -40.25 62.328125 -35.78125 62.328125 -30.71875 L 62.328125 -26.15625 L 10.734375 -26.15625 L 10.734375 -36.5 L 54.34375 -36.5 L 46.6875 -33.796875 C 46.6875 -36.953125 46.191406 -39.6875 45.203125 -42 C 44.210938 -44.3125 42.753906 -46.097656 40.828125 -47.359375 C 38.898438 -48.628906 36.519531 -49.265625 33.6875 -49.265625 C 30.863281 -49.265625 28.460938 -48.625 26.484375 -47.34375 C 24.503906 -46.0625 22.988281 -44.300781 21.9375 -42.0625 C 20.894531 -39.820312 20.375 -37.253906 20.375 -34.359375 L 20.375 -27.09375 C 20.375 -23.675781 20.957031 -20.773438 22.125 -18.390625 C 23.300781 -16.003906 24.960938 -14.195312 27.109375 -12.96875 C 29.253906 -11.738281 31.757812 -11.125 34.625 -11.125 C 36.570312 -11.125 38.34375 -11.40625 39.9375 -11.96875 C 41.539062 -12.539062 42.898438 -13.367188 44.015625 -14.453125 C 45.128906 -15.535156 45.984375 -16.863281 46.578125 -18.4375 L 61.5 -16.296875 C 60.539062 -12.773438 58.820312 -9.703125 56.34375 -7.078125 C 53.863281 -4.453125 50.757812 -2.410156 47.03125 -0.953125 C 43.3125 0.492188 39.066406 1.21875 34.296875 1.21875 Z M 34.296875 1.21875 "/></g></g></g><g fill="#ffffff" fill-opacity="1"><g transform="translate(789.646408, 184.499985)"><g/></g></g><g fill="#ffffff" fill-opacity="1"><g transform="translate(820.585519, 184.499985)"><g><path d="M 43.21875 1.15625 C 35.914062 1.15625 29.5 -0.578125 23.96875 -4.046875 C 18.445312 -7.515625 14.125 -12.394531 11 -18.6875 C 7.882812 -24.976562 6.328125 -32.398438 6.328125 -40.953125 C 6.328125 -49.578125 7.878906 -57.035156 10.984375 -63.328125 C 14.085938 -69.628906 18.378906 -74.515625 23.859375 -77.984375 C 29.347656 -81.453125 35.632812 -83.1875 42.71875 -83.1875 C 47.050781 -83.1875 51.109375 -82.535156 54.890625 -81.234375 C 58.671875 -79.929688 62.046875 -78.078125 65.015625 -75.671875 C 67.992188 -73.265625 70.472656 -70.410156 72.453125 -67.109375 C 74.429688 -63.804688 75.769531 -60.15625 76.46875 -56.15625 L 65.90625 -56.15625 C 65.09375 -58.800781 63.976562 -61.195312 62.5625 -63.34375 C 61.15625 -65.488281 59.46875 -67.320312 57.5 -68.84375 C 55.539062 -70.363281 53.320312 -71.535156 50.84375 -72.359375 C 48.363281 -73.191406 45.65625 -73.609375 42.71875 -73.609375 C 37.769531 -73.609375 33.3125 -72.332031 29.34375 -69.78125 C 25.375 -67.226562 22.234375 -63.519531 19.921875 -58.65625 C 17.617188 -53.789062 16.46875 -47.890625 16.46875 -40.953125 C 16.46875 -34.097656 17.628906 -28.242188 19.953125 -23.390625 C 22.285156 -18.546875 25.460938 -14.835938 29.484375 -12.265625 C 33.503906 -9.703125 38.082031 -8.421875 43.21875 -8.421875 C 47.84375 -8.421875 51.929688 -9.410156 55.484375 -11.390625 C 59.046875 -13.378906 61.847656 -16.1875 63.890625 -19.8125 C 65.929688 -23.445312 66.953125 -27.722656 66.953125 -32.640625 L 70.078125 -32.09375 L 45.640625 -32.09375 L 45.640625 -41.1875 L 77.078125 -41.1875 L 77.078125 -32.265625 C 77.078125 -25.546875 75.609375 -19.679688 72.671875 -14.671875 C 69.734375 -9.660156 65.722656 -5.769531 60.640625 -3 C 55.554688 -0.226562 49.75 1.15625 43.21875 1.15625 Z M 43.21875 1.15625 "/></g></g></g><g fill="#ffffff" fill-opacity="1"><g transform="translate(904.319311, 184.499985)"><g><path d="M 29.28125 0.828125 C 25.175781 0.828125 21.546875 -0.0234375 18.390625 -1.734375 C 15.234375 -3.441406 12.765625 -6.007812 10.984375 -9.4375 C 9.203125 -12.875 8.3125 -17.179688 8.3125 -22.359375 L 8.3125 -60.78125 L 18.109375 -60.78125 L 18.109375 -23.171875 C 18.109375 -18.367188 19.347656 -14.632812 21.828125 -11.96875 C 24.304688 -9.3125 27.691406 -7.984375 31.984375 -7.984375 C 34.878906 -7.984375 37.492188 -8.613281 39.828125 -9.875 C 42.160156 -11.144531 44.003906 -13.007812 45.359375 -15.46875 C 46.722656 -17.925781 47.40625 -20.953125 47.40625 -24.546875 L 47.40625 -60.78125 L 57.25 -60.78125 L 57.25 0 L 47.78125 0 L 47.78125 -14.75 L 49.390625 -14.75 C 47.472656 -9.101562 44.769531 -5.09375 41.28125 -2.71875 C 37.800781 -0.351562 33.800781 0.828125 29.28125 0.828125 Z M 29.28125 0.828125 "/></g></g></g><g fill="#ffffff" fill-opacity="1"><g transform="translate(969.886009, 184.499985)"><g><path d="M 8.3125 0 L 8.3125 -60.78125 L 18.109375 -60.78125 L 18.109375 0 Z M 13.21875 -71.125 C 11.382812 -71.125 9.796875 -71.765625 8.453125 -73.046875 C 7.117188 -74.335938 6.453125 -75.882812 6.453125 -77.6875 C 6.453125 -79.476562 7.117188 -81.003906 8.453125 -82.265625 C 9.796875 -83.535156 11.382812 -84.171875 13.21875 -84.171875 C 15.09375 -84.171875 16.695312 -83.535156 18.03125 -82.265625 C 19.375 -81.003906 20.046875 -79.476562 20.046875 -77.6875 C 20.046875 -75.882812 19.375 -74.335938 18.03125 -73.046875 C 16.695312 -71.765625 15.09375 -71.125 13.21875 -71.125 Z M 13.21875 -71.125 "/></g></g></g><g fill="#ffffff" fill-opacity="1"><g transform="translate(996.310873, 184.499985)"><g><path d="M 31.21875 1.265625 C 26.113281 1.265625 21.613281 -0.0234375 17.71875 -2.609375 C 13.832031 -5.203125 10.796875 -8.851562 8.609375 -13.5625 C 6.429688 -18.28125 5.34375 -23.851562 5.34375 -30.28125 C 5.34375 -36.664062 6.429688 -42.207031 8.609375 -46.90625 C 10.796875 -51.601562 13.84375 -55.234375 17.75 -57.796875 C 21.664062 -60.367188 26.15625 -61.65625 31.21875 -61.65625 C 34.882812 -61.65625 37.890625 -61.054688 40.234375 -59.859375 C 42.585938 -58.671875 44.460938 -57.269531 45.859375 -55.65625 C 47.253906 -54.039062 48.351562 -52.554688 49.15625 -51.203125 L 49.765625 -51.203125 L 49.765625 -82.03125 L 59.5625 -82.03125 L 59.5625 0 L 50.09375 0 L 50.09375 -9.359375 L 49.21875 -9.359375 C 48.375 -7.960938 47.234375 -6.4375 45.796875 -4.78125 C 44.367188 -3.132812 42.476562 -1.710938 40.125 -0.515625 C 37.78125 0.671875 34.8125 1.265625 31.21875 1.265625 Z M 32.640625 -7.484375 C 36.347656 -7.484375 39.492188 -8.445312 42.078125 -10.375 C 44.671875 -12.300781 46.644531 -14.976562 48 -18.40625 C 49.363281 -21.84375 50.046875 -25.816406 50.046875 -30.328125 C 50.046875 -34.847656 49.375 -38.796875 48.03125 -42.171875 C 46.695312 -45.546875 44.734375 -48.175781 42.140625 -50.0625 C 39.554688 -51.957031 36.390625 -52.90625 32.640625 -52.90625 C 28.898438 -52.90625 25.734375 -51.929688 23.140625 -49.984375 C 20.554688 -48.046875 18.59375 -45.378906 17.25 -41.984375 C 15.914062 -38.585938 15.25 -34.703125 15.25 -30.328125 C 15.25 -25.960938 15.914062 -22.054688 17.25 -18.609375 C 18.59375 -15.160156 20.566406 -12.441406 23.171875 -10.453125 C 25.785156 -8.472656 28.941406 -7.484375 32.640625 -7.484375 Z M 32.640625 -7.484375 "/></g></g></g><g fill="#ffffff" fill-opacity="1"><g transform="translate(1064.189735, 184.499985)"><g><path d="M 33.75 1.328125 C 27.875 1.328125 22.804688 0.00390625 18.546875 -2.640625 C 14.296875 -5.285156 11.03125 -8.957031 8.75 -13.65625 C 6.476562 -18.351562 5.34375 -23.800781 5.34375 -30 C 5.34375 -36.207031 6.46875 -41.695312 8.71875 -46.46875 C 10.976562 -51.238281 14.171875 -54.960938 18.296875 -57.640625 C 22.429688 -60.316406 27.234375 -61.65625 32.703125 -61.65625 C 36.148438 -61.65625 39.46875 -61.078125 42.65625 -59.921875 C 45.851562 -58.765625 48.71875 -56.945312 51.25 -54.46875 C 53.78125 -52 55.78125 -48.816406 57.25 -44.921875 C 58.71875 -41.035156 59.453125 -36.394531 59.453125 -31 L 59.453125 -27.203125 L 11.671875 -27.203125 L 11.671875 -35.453125 L 54.125 -35.453125 L 49.65625 -32.484375 C 49.65625 -36.484375 49.003906 -40.023438 47.703125 -43.109375 C 46.398438 -46.191406 44.488281 -48.601562 41.96875 -50.34375 C 39.457031 -52.09375 36.367188 -52.96875 32.703125 -52.96875 C 29.066406 -52.96875 25.9375 -52.082031 23.3125 -50.3125 C 20.6875 -48.550781 18.675781 -46.210938 17.28125 -43.296875 C 15.882812 -40.378906 15.1875 -37.175781 15.1875 -33.6875 L 15.1875 -28.515625 C 15.1875 -24.078125 15.945312 -20.28125 17.46875 -17.125 C 19 -13.96875 21.164062 -11.5625 23.96875 -9.90625 C 26.78125 -8.257812 30.054688 -7.4375 33.796875 -7.4375 C 36.296875 -7.4375 38.546875 -7.800781 40.546875 -8.53125 C 42.546875 -9.269531 44.257812 -10.351562 45.6875 -11.78125 C 47.125 -13.207031 48.207031 -14.96875 48.9375 -17.0625 L 58.46875 -14.96875 C 57.550781 -11.78125 55.953125 -8.957031 53.671875 -6.5 C 51.398438 -4.039062 48.566406 -2.117188 45.171875 -0.734375 C 41.773438 0.640625 37.96875 1.328125 33.75 1.328125 Z M 33.75 1.328125 "/></g></g></g></svg>
